<svg xmlns:dc="http://purl.org/dc/elements/1.1/" xmlns:cc="http://creativecommons.org/ns#" xmlns:rdf="http://www.w3.org/1999/02/22-rdf-syntax-ns#" xmlns:svg="http://www.w3.org/2000/svg" xmlns="http://www.w3.org/2000/svg" xmlns:sodipodi="http://sodipodi.sourceforge.net/DTD/sodipodi-0.dtd" xmlns:inkscape="http://www.inkscape.org/namespaces/inkscape" viewBox="0 0 96.000001 120.0000025" version="1.1" x="0px" y="0px"><g transform="translate(0,-956.36216)"><path style="color:#000000;font-style:normal;font-variant:normal;font-weight:normal;font-stretch:normal;font-size:medium;line-height:normal;font-family:sans-serif;text-indent:0;text-align:start;text-decoration:none;text-decoration-line:none;text-decoration-style:solid;text-decoration-color:#000000;letter-spacing:normal;word-spacing:normal;text-transform:none;direction:ltr;block-progression:tb;writing-mode:lr-tb;baseline-shift:baseline;text-anchor:start;white-space:normal;clip-rule:nonzero;display:inline;overflow:visible;visibility:visible;opacity:1;isolation:auto;mix-blend-mode:normal;color-interpolation:sRGB;color-interpolation-filters:linearRGB;solid-color:#000000;solid-opacity:1;fill:#000000;fill-opacity:1;fill-rule:nonzero;stroke:none;stroke-width:4;stroke-linecap:round;stroke-linejoin:miter;stroke-miterlimit:10;stroke-dasharray:none;stroke-dashoffset:0;stroke-opacity:1;color-rendering:auto;image-rendering:auto;shape-rendering:auto;text-rendering:auto;enable-background:accumulate" d="m 47.994141,973.02734 c -18.983693,0 -36.257454,15.48169 -34.394532,34.59766 1.372174,14.0802 5.063337,24.7236 10.941407,31.9531 5.878069,7.2295 14.007133,10.875 23.453125,10.875 9.445992,0 17.577007,-3.6455 23.455078,-10.875 5.878071,-7.2295 9.569238,-17.8729 10.941406,-31.9531 1.862912,-19.11596 -15.41279,-34.59766 -34.396484,-34.59766 z m 0,4 c 16.809364,0 32.022861,13.70252 30.414062,30.21096 -1.323491,13.5807 -4.886346,23.4502 -10.0625,29.8164 -5.176154,6.3662 -11.900994,9.3984 -20.351562,9.3984 -8.450568,0 -15.173457,-3.0322 -20.34961,-9.3984 -5.176152,-6.3662 -8.740956,-16.2357 -10.064453,-29.8164 -1.608808,-16.50845 13.604699,-30.21096 30.414063,-30.21096 z"/><path style="opacity:1;fill:#000000;fill-opacity:1;stroke:none;stroke-width:4;stroke-linecap:round;stroke-linejoin:miter;stroke-miterlimit:10;stroke-dasharray:none;stroke-opacity:1" d="m 32.878088,999.42602 a 10.245559,10.245559 0 0 0 -10.245774,10.24578 10.245559,10.245559 0 0 0 10.245774,10.2458 10.245559,10.245559 0 0 0 10.245773,-10.2458 10.245559,10.245559 0 0 0 -10.245773,-10.24578 z m -2.004976,2.45108 a 1.0772813,1.0772813 0 0 1 0.271394,2.1206 c -1.770206,0.4744 -3.148503,1.8527 -3.622837,3.6228 a 1.0772813,1.0772813 0 1 1 -2.080711,-0.5574 c 0.672641,-2.5103 2.635714,-4.4735 5.146035,-5.1461 a 1.0772813,1.0772813 0 0 1 0.286119,-0.04 z"/><path style="opacity:1;fill:#000000;fill-opacity:1;stroke:none;stroke-width:4;stroke-linecap:round;stroke-linejoin:miter;stroke-miterlimit:10;stroke-dasharray:none;stroke-opacity:1" d="m 64.170821,999.42602 a 10.245559,10.245559 0 0 0 -10.245774,10.24578 10.245559,10.245559 0 0 0 10.245774,10.2458 10.245559,10.245559 0 0 0 10.245774,-10.2458 10.245559,10.245559 0 0 0 -10.245774,-10.24578 z m -1.5274,2.45108 a 1.0772813,1.0772813 0 0 1 0.271394,2.1206 c -1.770205,0.4744 -3.150614,1.8527 -3.624937,3.6228 a 1.0772813,1.0772813 0 1 1 -2.080711,-0.5574 c 0.672641,-2.5103 2.635714,-4.4735 5.146024,-5.1461 a 1.0772813,1.0772813 0 0 1 0.28823,-0.04 z"/><path style="color:#000000;font-style:normal;font-variant:normal;font-weight:normal;font-stretch:normal;font-size:medium;line-height:normal;font-family:sans-serif;text-indent:0;text-align:start;text-decoration:none;text-decoration-line:none;text-decoration-style:solid;text-decoration-color:#000000;letter-spacing:normal;word-spacing:normal;text-transform:none;direction:ltr;block-progression:tb;writing-mode:lr-tb;baseline-shift:baseline;text-anchor:start;white-space:normal;clip-rule:nonzero;display:inline;overflow:visible;visibility:visible;opacity:1;isolation:auto;mix-blend-mode:normal;color-interpolation:sRGB;color-interpolation-filters:linearRGB;solid-color:#000000;solid-opacity:1;fill:#000000;fill-opacity:1;fill-rule:nonzero;stroke:none;stroke-width:4;stroke-linecap:round;stroke-linejoin:miter;stroke-miterlimit:10;stroke-dasharray:none;stroke-dashoffset:0;stroke-opacity:1;color-rendering:auto;image-rendering:auto;shape-rendering:auto;text-rendering:auto;enable-background:accumulate" d="m 56.638189,1007.1833 a 2.1545627,2.1545627 0 0 0 -0.41553,-0.4019 c -4.461524,-3.3876 -10.670708,-3.357 -15.097569,0.075 a 2.1545627,2.1545627 0 1 0 2.640314,3.405 c 2.902218,-2.2506 6.927035,-2.2704 9.851992,-0.05 a 2.1545627,2.1545627 0 0 0 3.020782,-3.0293 z"/><path style="opacity:1;fill:#000000;fill-opacity:1;stroke:none;stroke-width:2;stroke-linecap:round;stroke-linejoin:miter;stroke-miterlimit:10;stroke-dasharray:none;stroke-opacity:1" d="m 45.436736,958.11625 3.951278,0 c 2.288013,0 3.919888,1.85166 4.130002,4.13002 l 2.154347,23.36024 c 0.210113,2.27835 -1.841988,4.13 -4.130002,4.13 l -8.259972,0 c -2.288014,0 -4.340116,-1.85165 -4.130002,-4.13 l 2.154347,-23.36024 c 0.210114,-2.27836 1.841988,-4.13002 4.130002,-4.13002 z"/></g><text x="0" y="111.000002" fill="#000000" font-size="5px" font-weight="bold" font-family="'Helvetica Neue', Helvetica, Arial-Unicode, Arial, Sans-serif">Created by Kyle Dodson</text><text x="0" y="116.000002" fill="#000000" font-size="5px" font-weight="bold" font-family="'Helvetica Neue', Helvetica, Arial-Unicode, Arial, Sans-serif">from the Noun Project</text></svg>